REM DIRINDEX 1\4,1\2\5,1\2\6,1\3\7,1\3\8
REM DIRNAME folder01,folder02,folder03,folder04,folder05,folder06,folder07,folder08
TITLE ""
FILE "019_Day10_Check2_Phrases.mp3" MP3
  TRACK 01 AUDIO
    TITLE "0:"
    INDEX 01 00:00:00
  TRACK 02 AUDIO
    TITLE "4:cjc124_0595"
    INDEX 01 00:00:31
  TRACK 03 AUDIO
    TITLE "0:"
    INDEX 01 00:01:46
  TRACK 04 AUDIO
    TITLE "5:cjc124_0596"
    INDEX 01 00:02:04
  TRACK 05 AUDIO
    TITLE "0:"
    INDEX 01 00:03:74
  TRACK 06 AUDIO
    TITLE "6:cjc124_0597"
    INDEX 01 00:04:15
  TRACK 07 AUDIO
    TITLE "0:"
    INDEX 01 00:05:28
  TRACK 08 AUDIO
    TITLE "5:cjc124_0598"
    INDEX 01 00:05:65
  TRACK 09 AUDIO
    TITLE "0:"
    INDEX 01 00:07:54
  TRACK 10 AUDIO
    TITLE "6:cjc124_0599"
    INDEX 01 00:07:72
  TRACK 11 AUDIO
    TITLE "0:"
    INDEX 01 00:09:22
  TRACK 12 AUDIO
    TITLE "5:cjc124_0600"
    INDEX 01 00:09:59
  TRACK 13 AUDIO
    TITLE "0:"
    INDEX 01 00:11:27
  TRACK 14 AUDIO
    TITLE "6:cjc124_0601"
    INDEX 01 00:11:46
  TRACK 15 AUDIO
    TITLE "0:"
    INDEX 01 00:13:14
  TRACK 16 AUDIO
    TITLE "5:cjc124_0602"
    INDEX 01 00:13:51
  TRACK 17 AUDIO
    TITLE "0:"
    INDEX 01 00:16:28
  TRACK 18 AUDIO
    TITLE "6:cjc124_0603"
    INDEX 01 00:16:44
  TRACK 19 AUDIO
    TITLE "0:"
    INDEX 01 00:18:42
  TRACK 20 AUDIO
    TITLE "5:cjc124_0604"
    INDEX 01 00:19:07
  TRACK 21 AUDIO
    TITLE "0:"
    INDEX 01 00:20:71
  TRACK 22 AUDIO
    TITLE "6:cjc124_0605"
    INDEX 01 00:21:13
  TRACK 23 AUDIO
    TITLE "0:"
    INDEX 01 00:22:64
  TRACK 24 AUDIO
    TITLE "5:cjc124_0606"
    INDEX 01 00:23:26
  TRACK 25 AUDIO
    TITLE "0:"
    INDEX 01 00:24:72
  TRACK 26 AUDIO
    TITLE "6:cjc124_0607"
    INDEX 01 00:25:25
  TRACK 27 AUDIO
    TITLE "0:"
    INDEX 01 00:27:10
  TRACK 28 AUDIO
    TITLE "5:cjc124_0608"
    INDEX 01 00:27:47
  TRACK 29 AUDIO
    TITLE "0:"
    INDEX 01 00:29:27
  TRACK 30 AUDIO
    TITLE "6:cjc124_0609"
    INDEX 01 00:29:44
  TRACK 31 AUDIO
    TITLE "0:"
    INDEX 01 00:31:20
  TRACK 32 AUDIO
    TITLE "5:cjc124_0610"
    INDEX 01 00:31:63
  TRACK 33 AUDIO
    TITLE "0:"
    INDEX 01 00:33:62
  TRACK 34 AUDIO
    TITLE "6:cjc124_0611"
    INDEX 01 00:34:16
  TRACK 35 AUDIO
    TITLE "0:"
    INDEX 01 00:36:27
  TRACK 36 AUDIO
    TITLE "5:cjc124_0612"
    INDEX 01 00:36:64
  TRACK 37 AUDIO
    TITLE "0:"
    INDEX 01 00:38:49
  TRACK 38 AUDIO
    TITLE "6:cjc124_0613"
    INDEX 01 00:39:02
  TRACK 39 AUDIO
    TITLE "0:"
    INDEX 01 00:40:36
  TRACK 40 AUDIO
    TITLE "5:cjc124_0614"
    INDEX 01 00:41:00
  TRACK 41 AUDIO
    TITLE "0:"
    INDEX 01 00:42:59
  TRACK 42 AUDIO
    TITLE "6:cjc124_0615"
    INDEX 01 00:42:74
  TRACK 43 AUDIO
    TITLE "0:"
    INDEX 01 00:44:28
  TRACK 44 AUDIO
    TITLE "5:cjc124_0616"
    INDEX 01 00:45:02
  TRACK 45 AUDIO
    TITLE "0:"
    INDEX 01 00:47:07
  TRACK 46 AUDIO
    TITLE "6:cjc124_0617"
    INDEX 01 00:47:23
  TRACK 47 AUDIO
    TITLE "0:"
    INDEX 01 00:49:06
  TRACK 48 AUDIO
    TITLE "5:cjc124_0618"
    INDEX 01 00:49:43
  TRACK 49 AUDIO
    TITLE "0:"
    INDEX 01 00:51:26
  TRACK 50 AUDIO
    TITLE "6:cjc124_0619"
    INDEX 01 00:51:44
  TRACK 51 AUDIO
    TITLE "0:"
    INDEX 01 00:53:13
  TRACK 52 AUDIO
    TITLE "5:cjc124_0620"
    INDEX 01 00:53:51
  TRACK 53 AUDIO
    TITLE "0:"
    INDEX 01 00:55:69
  TRACK 54 AUDIO
    TITLE "6:cjc124_0621"
    INDEX 01 00:56:12
  TRACK 55 AUDIO
    TITLE "0:"
    INDEX 01 00:57:39
  TRACK 56 AUDIO
    TITLE "5:cjc124_0622"
    INDEX 01 00:58:05
  TRACK 57 AUDIO
    TITLE "0:"
    INDEX 01 00:59:59
  TRACK 58 AUDIO
    TITLE "6:cjc124_0623"
    INDEX 01 00:59:73
  TRACK 59 AUDIO
    TITLE "0:"
    INDEX 01 01:01:46
  TRACK 60 AUDIO
    TITLE "5:cjc124_0624"
    INDEX 01 01:02:08
  TRACK 61 AUDIO
    TITLE "0:"
    INDEX 01 01:03:71
  TRACK 62 AUDIO
    TITLE "6:cjc124_0625"
    INDEX 01 01:04:15
  TRACK 63 AUDIO
    TITLE "0:"
    INDEX 01 01:05:56
  TRACK 64 AUDIO
    TITLE "5:cjc124_0626"
    INDEX 01 01:06:20
  TRACK 65 AUDIO
    TITLE "0:"
    INDEX 01 01:08:35
  TRACK 66 AUDIO
    TITLE "6:cjc124_0627"
    INDEX 01 01:08:48
  TRACK 67 AUDIO
    TITLE "0:"
    INDEX 01 01:10:06
